<svg width="50" height="50" viewBox="0 0 50 50" fill="none" xmlns="http://www.w3.org/2000/svg">
<rect width="50" height="50" rx="10" fill="white"/>
<path fill-rule="evenodd" clip-rule="evenodd" d="M20 15.25C20.4142 15.25 20.75 15.5858 20.75 16V17H29.25V16C29.25 15.5858 29.5858 15.25 30 15.25C30.4142 15.25 30.75 15.5858 30.75 16V17H32C33.6569 17 35 18.3431 35 20V32C35 33.6569 33.6569 35 32 35H18C16.3431 35 15 33.6569 15 32V20C15 18.3431 16.3431 17 18 17H19.25V16C19.25 15.5858 19.5858 15.25 20 15.25ZM29.25 18.5V20C29.25 20.4142 29.5858 20.75 30 20.75C30.4142 20.75 30.75 20.4142 30.75 20V18.5H32C32.8284 18.5 33.5 19.1716 33.5 20V23.25H16.5V20C16.5 19.1716 17.1716 18.5 18 18.5H19.25V20C19.25 20.4142 19.5858 20.75 20 20.75C20.4142 20.75 20.75 20.4142 20.75 20V18.5H29.25ZM16.5 24.75V32C16.5 32.8284 17.1716 33.5 18 33.5H32C32.8284 33.5 33.5 32.8284 33.5 32V24.75H16.5Z" fill="#9BAAD3"/>
</svg>
