<svg width="41" height="40" viewBox="0 0 41 40" fill="none" xmlns="http://www.w3.org/2000/svg">
<circle cx="20.4655" cy="20" r="18.931" fill="#FF6647" stroke="white" stroke-width="2.10345"/>
<path d="M24.4834 12.6436H16.5628C15.7917 12.6436 15.1609 13.3454 15.1609 14.203V27.8087C15.1609 28.1791 15.3536 28.5299 15.6515 28.6859C15.967 28.8418 16.3174 28.8028 16.5803 28.5689L16.5978 28.5494L20.5231 24.8654L24.4483 28.5494L24.4659 28.5689C24.6236 28.7054 24.8163 28.7833 25.0091 28.7833C25.1317 28.7833 25.2719 28.7443 25.3946 28.6664C25.6925 28.5104 25.8853 28.1596 25.8853 27.7892V14.203C25.8853 13.3454 25.2544 12.6436 24.4834 12.6436Z" fill="white"/>
</svg>
