<svg width="50" height="50" viewBox="0 0 50 50" fill="none" xmlns="http://www.w3.org/2000/svg">
<rect width="50" height="50" rx="10" fill="white"/>
<path fill-rule="evenodd" clip-rule="evenodd" d="M25 33.5C29.6944 33.5 33.5 29.6944 33.5 25C33.5 20.3056 29.6944 16.5 25 16.5C20.3056 16.5 16.5 20.3056 16.5 25C16.5 29.6944 20.3056 33.5 25 33.5ZM35 25C35 30.5228 30.5228 35 25 35C19.4772 35 15 30.5228 15 25C15 19.4772 19.4772 15 25 15C30.5228 15 35 19.4772 35 25Z" fill="#9BAAD3"/>
<path fill-rule="evenodd" clip-rule="evenodd" d="M27.9368 22.0632L23.8779 23.5853C23.7427 23.636 23.636 23.7427 23.5853 23.8779L22.0632 27.9368L26.1221 26.4147C26.2573 26.364 26.364 26.2573 26.4147 26.1221L27.9368 22.0632ZM28.4401 20.2725L23.3512 22.1808C22.8104 22.3836 22.3836 22.8104 22.1808 23.3512L20.2725 28.4401C19.971 29.244 20.756 30.029 21.5599 29.7275L26.6488 27.8192C27.1896 27.6164 27.6164 27.1896 27.8192 26.6488L29.7275 21.5599C30.029 20.756 29.244 19.971 28.4401 20.2725Z" fill="#9BAAD3"/>
</svg>
