<svg width="49" height="49" viewBox="0 0 49 49" fill="none" xmlns="http://www.w3.org/2000/svg">
<g filter="url(#filter0_d_1_146)">
<circle cx="24.4655" cy="20" r="17.8793" fill="#FF6647"/>
<circle cx="24.4655" cy="20" r="18.931" stroke="white" stroke-width="2.10345"/>
</g>
<path d="M28.4834 12.6436H20.5628C19.7917 12.6436 19.1609 13.3454 19.1609 14.203V27.8087C19.1609 28.1791 19.3536 28.5299 19.6515 28.6859C19.967 28.8418 20.3174 28.8028 20.5803 28.5689L20.5978 28.5494L24.5231 24.8654L28.4483 28.5494L28.4659 28.5689C28.6236 28.7054 28.8163 28.7833 29.0091 28.7833C29.1317 28.7833 29.2719 28.7443 29.3946 28.6664C29.6925 28.5104 29.8853 28.1596 29.8853 27.7892V14.203C29.8853 13.3454 29.2544 12.6436 28.4834 12.6436Z" fill="white"/>
<defs>
<filter id="filter0_d_1_146" x="0.275891" y="0.0172424" width="48.3792" height="48.3793" filterUnits="userSpaceOnUse" color-interpolation-filters="sRGB">
<feFlood flood-opacity="0" result="BackgroundImageFix"/>
<feColorMatrix in="SourceAlpha" type="matrix" values="0 0 0 0 0 0 0 0 0 0 0 0 0 0 0 0 0 0 127 0" result="hardAlpha"/>
<feOffset dy="4.2069"/>
<feGaussianBlur stdDeviation="2.10345"/>
<feColorMatrix type="matrix" values="0 0 0 0 1 0 0 0 0 0.4 0 0 0 0 0.278431 0 0 0 0.25 0"/>
<feBlend mode="normal" in2="BackgroundImageFix" result="effect1_dropShadow_1_146"/>
<feBlend mode="normal" in="SourceGraphic" in2="effect1_dropShadow_1_146" result="shape"/>
</filter>
</defs>
</svg>
