<?xml version="1.0" encoding="utf-8"?>
<svg width="50px" height="50px" viewBox="0 0 50 50" fill="none" preserveAspectRatio="xMinYMin" xmlns="http://www.w3.org/2000/svg" xmlns:bx="https://boxy-svg.com">
  <g>
    <rect width="50" height="50" rx="10" style="fill: rgb(255, 255, 255); fill-rule: nonzero; paint-order: fill;" bx:origin="-0.4 -0.2"/>
  </g>
  <path fill-rule="evenodd" clip-rule="evenodd" d="M 17.648 35.091 C 15.991 35.091 14.648 33.747 14.648 32.091 L 14.648 24.427 C 14.648 23.576 15.009 22.766 15.641 22.197 L 22.641 15.897 C 23.782 14.87 25.514 14.87 26.655 15.897 L 33.655 22.197 C 34.287 22.766 34.648 23.576 34.648 24.427 L 34.648 32.091 C 34.648 33.747 33.305 35.091 31.648 35.091 L 17.648 35.091 Z M 33.148 24.427 L 33.148 32.091 C 33.148 32.919 32.476 33.591 31.648 33.591 L 28.648 33.591 L 28.648 28.091 C 28.648 26.434 27.305 25.091 25.648 25.091 L 23.648 25.091 C 21.991 25.091 20.648 26.434 20.648 28.091 L 20.648 33.591 L 17.648 33.591 C 16.819 33.591 16.148 32.919 16.148 32.091 L 16.148 24.427 C 16.148 24.001 16.328 23.596 16.644 23.312 L 23.644 17.012 C 24.215 16.498 25.081 16.498 25.651 17.012 L 32.651 23.312 C 32.967 23.596 33.148 24.001 33.148 24.427 Z M 22.148 33.591 L 22.148 28.091 C 22.148 27.262 22.819 26.591 23.648 26.591 L 25.648 26.591 C 26.476 26.591 27.148 27.262 27.148 28.091 L 27.148 33.591 L 22.148 33.591 Z" style="fill: rgb(155, 170, 211);"/>
</svg>