<svg width="50" height="50" viewBox="0 0 50 50" fill="none" xmlns="http://www.w3.org/2000/svg">
<rect width="50" height="50" rx="10" fill="white"/>
<path d="M28.7331 17.6734C28.928 17.2909 29.3981 17.1361 29.7623 17.3632C31.2476 18.2894 32.4358 19.6322 33.1733 21.2321C34.0196 23.0679 34.2233 25.1353 33.7513 27.101C33.2794 29.0667 32.1594 30.8163 30.5719 32.0678C28.9843 33.3194 27.0216 34 25 34C22.9784 34 21.0157 33.3194 19.4282 32.0679C17.8406 30.8163 16.7206 29.0667 16.2487 27.101C15.7768 25.1353 15.9804 23.0679 16.8267 21.2321C17.5642 19.6323 18.7524 18.2894 20.2377 17.3632C20.6019 17.1361 21.072 17.291 21.2669 17.6734C21.4617 18.0558 21.3069 18.5205 20.9469 18.7541C19.7709 19.5172 18.8295 20.6002 18.2382 21.8828C17.538 23.4016 17.3696 25.1119 17.76 26.7382C18.1504 28.3644 19.077 29.8119 20.3904 30.8473C21.7038 31.8827 23.3276 32.4457 25 32.4457C26.6725 32.4457 28.2962 31.8826 29.6096 30.8472C30.923 29.8118 31.8496 28.3644 32.24 26.7382C32.6304 25.1119 32.462 23.4016 31.7618 21.8828C31.1705 20.6001 30.2291 19.5172 29.0531 18.7541C28.6931 18.5204 28.5383 18.0558 28.7331 17.6734Z" fill="#9BAAD3"/>
<path fill-rule="evenodd" clip-rule="evenodd" d="M25 15.25C25.4142 15.25 25.75 15.5858 25.75 16V21C25.75 21.4142 25.4142 21.75 25 21.75C24.5858 21.75 24.25 21.4142 24.25 21V16C24.25 15.5858 24.5858 15.25 25 15.25Z" fill="#9BAAD3"/>
</svg>
