<svg width="77" height="81" viewBox="0 0 77 81" fill="none" xmlns="http://www.w3.org/2000/svg">
<rect x="13" width="50" height="50" rx="10" fill="#FF6647"/>
<rect width="24" height="24" transform="translate(26 13)" fill="#FF6647"/>
<path d="M41.7331 17.6734C41.928 17.2909 42.3981 17.1361 42.7623 17.3632C44.2476 18.2894 45.4358 19.6322 46.1733 21.2321C47.0196 23.0679 47.2233 25.1353 46.7513 27.101C46.2794 29.0667 45.1594 30.8163 43.5719 32.0678C41.9843 33.3194 40.0216 34 38 34C35.9784 34 34.0157 33.3194 32.4282 32.0679C30.8406 30.8163 29.7206 29.0667 29.2487 27.101C28.7768 25.1353 28.9804 23.0679 29.8267 21.2321C30.5642 19.6323 31.7524 18.2894 33.2377 17.3632C33.6019 17.1361 34.072 17.291 34.2669 17.6734C34.4617 18.0558 34.3069 18.5205 33.9469 18.7541C32.7709 19.5172 31.8295 20.6002 31.2382 21.8828C30.538 23.4016 30.3696 25.1119 30.76 26.7382C31.1504 28.3644 32.077 29.8119 33.3904 30.8473C34.7038 31.8827 36.3276 32.4457 38 32.4457C39.6725 32.4457 41.2962 31.8826 42.6096 30.8472C43.923 29.8118 44.8496 28.3644 45.24 26.7382C45.6304 25.1119 45.462 23.4016 44.7618 21.8828C44.1705 20.6001 43.2291 19.5172 42.0531 18.7541C41.6931 18.5204 41.5383 18.0558 41.7331 17.6734Z" fill="#9BAAD3"/>
<path d="M41.7331 17.6734C41.928 17.2909 42.3981 17.1361 42.7623 17.3632C44.2476 18.2894 45.4358 19.6322 46.1733 21.2321C47.0196 23.0679 47.2233 25.1353 46.7513 27.101C46.2794 29.0667 45.1594 30.8163 43.5719 32.0678C41.9843 33.3194 40.0216 34 38 34C35.9784 34 34.0157 33.3194 32.4282 32.0679C30.8406 30.8163 29.7206 29.0667 29.2487 27.101C28.7768 25.1353 28.9804 23.0679 29.8267 21.2321C30.5642 19.6323 31.7524 18.2894 33.2377 17.3632C33.6019 17.1361 34.072 17.291 34.2669 17.6734C34.4617 18.0558 34.3069 18.5205 33.9469 18.7541C32.7709 19.5172 31.8295 20.6002 31.2382 21.8828C30.538 23.4016 30.3696 25.1119 30.76 26.7382C31.1504 28.3644 32.077 29.8119 33.3904 30.8473C34.7038 31.8827 36.3276 32.4457 38 32.4457C39.6725 32.4457 41.2962 31.8826 42.6096 30.8472C43.923 29.8118 44.8496 28.3644 45.24 26.7382C45.6304 25.1119 45.462 23.4016 44.7618 21.8828C44.1705 20.6001 43.2291 19.5172 42.0531 18.7541C41.6931 18.5204 41.5383 18.0558 41.7331 17.6734Z" fill="white"/>
<path fill-rule="evenodd" clip-rule="evenodd" d="M38 15.25C38.4142 15.25 38.75 15.5858 38.75 16V21C38.75 21.4142 38.4142 21.75 38 21.75C37.5858 21.75 37.25 21.4142 37.25 21V16C37.25 15.5858 37.5858 15.25 38 15.25Z" fill="#9BAAD3"/>
<path fill-rule="evenodd" clip-rule="evenodd" d="M38 15.25C38.4142 15.25 38.75 15.5858 38.75 16V21C38.75 21.4142 38.4142 21.75 38 21.75C37.5858 21.75 37.25 21.4142 37.25 21V16C37.25 15.5858 37.5858 15.25 38 15.25Z" fill="white"/>
<path d="M20.2178 68.408H21.2258V76.028H24.9938V77H20.2178V68.408ZM28.7987 77.192C28.1987 77.192 27.6587 77.048 27.1787 76.76C26.6987 76.472 26.3227 76.08 26.0507 75.584C25.7867 75.088 25.6547 74.54 25.6547 73.94C25.6547 73.34 25.7867 72.792 26.0507 72.296C26.3227 71.8 26.6987 71.408 27.1787 71.12C27.6587 70.832 28.1987 70.688 28.7987 70.688C29.3987 70.688 29.9387 70.832 30.4187 71.12C30.8987 71.408 31.2707 71.8 31.5347 72.296C31.8067 72.792 31.9427 73.34 31.9427 73.94C31.9427 74.54 31.8067 75.088 31.5347 75.584C31.2707 76.08 30.8987 76.472 30.4187 76.76C29.9387 77.048 29.3987 77.192 28.7987 77.192ZM28.7987 76.268C29.1747 76.268 29.5227 76.176 29.8427 75.992C30.1707 75.8 30.4307 75.528 30.6227 75.176C30.8227 74.824 30.9227 74.412 30.9227 73.94C30.9227 73.468 30.8227 73.056 30.6227 72.704C30.4307 72.352 30.1707 72.084 29.8427 71.9C29.5227 71.708 29.1747 71.612 28.7987 71.612C28.4227 71.612 28.0707 71.708 27.7427 71.9C27.4147 72.084 27.1507 72.352 26.9507 72.704C26.7587 73.056 26.6627 73.468 26.6627 73.94C26.6627 74.412 26.7587 74.824 26.9507 75.176C27.1507 75.528 27.4147 75.8 27.7427 75.992C28.0707 76.176 28.4227 76.268 28.7987 76.268ZM35.8151 79.784C35.0951 79.784 34.4991 79.616 34.0271 79.28C33.5631 78.944 33.2511 78.54 33.0911 78.068L34.0151 77.672C34.1511 78.024 34.3751 78.308 34.6871 78.524C35.0071 78.748 35.3831 78.86 35.8151 78.86C36.4471 78.86 36.9351 78.676 37.2791 78.308C37.6311 77.94 37.8071 77.42 37.8071 76.748V76.064H37.7591C37.5591 76.376 37.2751 76.632 36.9071 76.832C36.5471 77.024 36.1351 77.12 35.6711 77.12C35.1431 77.12 34.6591 76.984 34.2191 76.712C33.7871 76.44 33.4431 76.06 33.1871 75.572C32.9311 75.084 32.8031 74.528 32.8031 73.904C32.8031 73.288 32.9311 72.736 33.1871 72.248C33.4431 71.752 33.7871 71.368 34.2191 71.096C34.6591 70.824 35.1431 70.688 35.6711 70.688C36.1351 70.688 36.5471 70.788 36.9071 70.988C37.2751 71.18 37.5591 71.436 37.7591 71.756H37.8071V70.88H38.7791V76.76C38.7791 77.744 38.5071 78.492 37.9631 79.004C37.4191 79.524 36.7031 79.784 35.8151 79.784ZM35.8151 76.196C36.1831 76.196 36.5151 76.104 36.8111 75.92C37.1151 75.736 37.3551 75.472 37.5311 75.128C37.7151 74.784 37.8071 74.376 37.8071 73.904C37.8071 73.424 37.7151 73.012 37.5311 72.668C37.3551 72.324 37.1151 72.064 36.8111 71.888C36.5151 71.704 36.1831 71.612 35.8151 71.612C35.4471 71.612 35.1111 71.704 34.8071 71.888C34.5031 72.072 34.2591 72.336 34.0751 72.68C33.8991 73.024 33.8111 73.432 33.8111 73.904C33.8111 74.376 33.8991 74.788 34.0751 75.14C34.2591 75.484 34.5031 75.748 34.8071 75.932C35.1111 76.108 35.4471 76.196 35.8151 76.196ZM43.0487 77.192C42.4487 77.192 41.9087 77.048 41.4287 76.76C40.9487 76.472 40.5727 76.08 40.3007 75.584C40.0367 75.088 39.9047 74.54 39.9047 73.94C39.9047 73.34 40.0367 72.792 40.3007 72.296C40.5727 71.8 40.9487 71.408 41.4287 71.12C41.9087 70.832 42.4487 70.688 43.0487 70.688C43.6487 70.688 44.1887 70.832 44.6687 71.12C45.1487 71.408 45.5207 71.8 45.7847 72.296C46.0567 72.792 46.1927 73.34 46.1927 73.94C46.1927 74.54 46.0567 75.088 45.7847 75.584C45.5207 76.08 45.1487 76.472 44.6687 76.76C44.1887 77.048 43.6487 77.192 43.0487 77.192ZM43.0487 76.268C43.4247 76.268 43.7727 76.176 44.0927 75.992C44.4207 75.8 44.6807 75.528 44.8727 75.176C45.0727 74.824 45.1727 74.412 45.1727 73.94C45.1727 73.468 45.0727 73.056 44.8727 72.704C44.6807 72.352 44.4207 72.084 44.0927 71.9C43.7727 71.708 43.4247 71.612 43.0487 71.612C42.6727 71.612 42.3207 71.708 41.9927 71.9C41.6647 72.084 41.4007 72.352 41.2007 72.704C41.0087 73.056 40.9127 73.468 40.9127 73.94C40.9127 74.412 41.0087 74.824 41.2007 75.176C41.4007 75.528 41.6647 75.8 41.9927 75.992C42.3207 76.176 42.6727 76.268 43.0487 76.268ZM49.5385 77.192C48.8025 77.192 48.2385 76.976 47.8465 76.544C47.4625 76.112 47.2705 75.508 47.2705 74.732V70.88H48.2905V74.576C48.2905 75.16 48.4225 75.588 48.6865 75.86C48.9505 76.132 49.3065 76.268 49.7545 76.268C50.0985 76.268 50.4025 76.176 50.6665 75.992C50.9385 75.808 51.1465 75.568 51.2905 75.272C51.4425 74.976 51.5185 74.664 51.5185 74.336V70.88H52.5385V77H51.5665V76.112H51.5185C51.3505 76.416 51.0825 76.672 50.7145 76.88C50.3465 77.088 49.9545 77.192 49.5385 77.192ZM56.4557 77.096C56.2077 77.096 55.9757 77.056 55.7597 76.976C55.5517 76.896 55.3757 76.788 55.2317 76.652C55.0717 76.5 54.9517 76.324 54.8717 76.124C54.7917 75.924 54.7517 75.68 54.7517 75.392V71.804H53.6837V70.88H54.7517V69.152H55.7717V70.88H57.2597V71.804H55.7717V75.14C55.7717 75.476 55.8357 75.724 55.9637 75.884C56.1157 76.06 56.3357 76.148 56.6237 76.148C56.8557 76.148 57.0797 76.08 57.2957 75.944V76.94C57.1757 76.996 57.0517 77.036 56.9237 77.06C56.8037 77.084 56.6477 77.096 56.4557 77.096Z" fill="#7987A5"/>
</svg>
