<svg width="50" height="50" viewBox="0 0 50 50" fill="none" xmlns="http://www.w3.org/2000/svg">
<rect width="50" height="50" rx="10" fill="#FF6647"/>
<rect width="24" height="24" transform="translate(14 13)" fill="#FF6647"/>
<path fill-rule="evenodd" clip-rule="evenodd" d="M26 27.5C27.3807 27.5 28.5 26.3807 28.5 25C28.5 23.6193 27.3807 22.5 26 22.5C24.6193 22.5 23.5 23.6193 23.5 25C23.5 26.3807 24.6193 27.5 26 27.5ZM30 25C30 27.2091 28.2091 29 26 29C23.7909 29 22 27.2091 22 25C22 22.7909 23.7909 21 26 21C28.2091 21 30 22.7909 30 25Z" fill="#9BAAD3"/>
<path fill-rule="evenodd" clip-rule="evenodd" d="M26 27.5C27.3807 27.5 28.5 26.3807 28.5 25C28.5 23.6193 27.3807 22.5 26 22.5C24.6193 22.5 23.5 23.6193 23.5 25C23.5 26.3807 24.6193 27.5 26 27.5ZM30 25C30 27.2091 28.2091 29 26 29C23.7909 29 22 27.2091 22 25C22 22.7909 23.7909 21 26 21C28.2091 21 30 22.7909 30 25Z" fill="white"/>
<path fill-rule="evenodd" clip-rule="evenodd" d="M24.9047 15.8419L24.5172 17.0045C24.1904 17.9849 23.4733 18.6794 22.7221 19.0976C22.6581 19.1333 22.5946 19.17 22.5319 19.2077C21.7932 19.6511 20.8319 19.9257 19.8183 19.7183L18.6165 19.4723C18.4057 19.4292 18.1909 19.5258 18.0833 19.7122L17.4623 20.7878C17.3547 20.9741 17.3784 21.2085 17.5212 21.3695L18.3362 22.2886C19.0203 23.06 19.2652 24.0268 19.2516 24.8882C19.2504 24.9627 19.2504 25.0373 19.2516 25.1118C19.2652 25.9732 19.0203 26.9399 18.3362 27.7113L17.5212 28.6304C17.3784 28.7915 17.3547 29.0258 17.4623 29.2122L18.0833 30.2878C18.1909 30.4741 18.4057 30.5707 18.6165 30.5276L19.8182 30.2817C20.8318 30.0743 21.7932 30.3489 22.5318 30.7923C22.5946 30.83 22.6581 30.8667 22.7221 30.9024C23.4733 31.3206 24.1904 32.0151 24.5172 32.9955L24.9047 34.1581C24.9728 34.3623 25.1638 34.5 25.3791 34.5H26.621C26.8362 34.5 27.0273 34.3623 27.0954 34.1581L27.4829 32.9955C27.8097 32.0151 28.5268 31.3206 29.2779 30.9024C29.342 30.8667 29.4054 30.83 29.4682 30.7923C30.2069 30.3489 31.1682 30.0743 32.1819 30.2817L33.3835 30.5276C33.5944 30.5707 33.8092 30.4741 33.9168 30.2878L34.5377 29.2122C34.6453 29.0258 34.6216 28.7915 34.4788 28.6304L33.6639 27.7114C32.9798 26.94 32.7348 25.9732 32.7485 25.1118C32.7497 25.0373 32.7497 24.9627 32.7485 24.8882C32.7348 24.0267 32.9798 23.06 33.6639 22.2885L34.4788 21.3695C34.6216 21.2085 34.6453 20.9741 34.5377 20.7878L33.9168 19.7122C33.8092 19.5258 33.5944 19.4292 33.3835 19.4723L32.1818 19.7183C31.1682 19.9257 30.2068 19.6511 29.4682 19.2076C29.4054 19.17 29.342 19.1333 29.2779 19.0976C28.5268 18.6794 27.8097 17.9849 27.4829 17.0045L27.0954 15.8419C27.0273 15.6377 26.8362 15.5 26.621 15.5H25.3791C25.1638 15.5 24.9728 15.6377 24.9047 15.8419ZM23.0941 16.5302C22.9119 17.0769 22.4959 17.5067 21.9924 17.7871C21.9141 17.8307 21.8366 17.8755 21.7598 17.9216C21.2651 18.2186 20.6843 18.3644 20.119 18.2487L18.9172 18.0028C18.0738 17.8302 17.2146 18.2167 16.7842 18.9622L16.1632 20.0378C15.7328 20.7833 15.8277 21.7206 16.3989 22.3647L17.2139 23.2838C17.5958 23.7145 17.7609 24.2889 17.7518 24.8644C17.7503 24.9548 17.7503 25.0452 17.7518 25.1355C17.7609 25.7111 17.5958 26.2854 17.2139 26.7161L16.3989 27.6352C15.8277 28.2793 15.7328 29.2167 16.1632 29.9622L16.7842 31.0378C17.2146 31.7833 18.0738 32.1697 18.9172 31.9971L20.1189 31.7512C20.6842 31.6356 21.2651 31.7814 21.7598 32.0784C21.8365 32.1244 21.9141 32.1693 21.9924 32.2129C22.4959 32.4933 22.9119 32.9231 23.0941 33.4698L23.4817 34.6325C23.7539 35.4491 24.5182 36 25.3791 36H26.621C27.4819 36 28.2462 35.4491 28.5184 34.6325L28.9059 33.4698C29.0882 32.9231 29.5042 32.4933 30.0077 32.2129C30.086 32.1693 30.1635 32.1244 30.2403 32.0784C30.735 31.7814 31.3158 31.6356 31.8811 31.7512L33.0828 31.9971C33.9262 32.1697 34.7854 31.7833 35.2158 31.0378L35.8368 29.9622C36.2672 29.2167 36.1723 28.2793 35.6011 27.6352L34.7862 26.7162C34.4042 26.2855 34.2392 25.7111 34.2483 25.1356C34.2497 25.0452 34.2497 24.9548 34.2483 24.8644C34.2392 24.2888 34.4042 23.7144 34.7862 23.2838L35.6011 22.3647C36.1723 21.7206 36.2672 20.7833 35.8368 20.0378L35.2158 18.9622C34.7854 18.2167 33.9262 17.8302 33.0828 18.0028L31.881 18.2487C31.3158 18.3644 30.7349 18.2186 30.2402 17.9216C30.1635 17.8755 30.086 17.8307 30.0077 17.7871C29.5042 17.5067 29.0882 17.0769 28.9059 16.5302L28.5184 15.3675C28.2462 14.5509 27.4819 14 26.621 14H25.3791C24.5182 14 23.7539 14.5509 23.4817 15.3675L23.0941 16.5302Z" fill="#9BAAD3"/>
<path fill-rule="evenodd" clip-rule="evenodd" d="M24.9047 15.8419L24.5172 17.0045C24.1904 17.9849 23.4733 18.6794 22.7221 19.0976C22.6581 19.1333 22.5946 19.17 22.5319 19.2077C21.7932 19.6511 20.8319 19.9257 19.8183 19.7183L18.6165 19.4723C18.4057 19.4292 18.1909 19.5258 18.0833 19.7122L17.4623 20.7878C17.3547 20.9741 17.3784 21.2085 17.5212 21.3695L18.3362 22.2886C19.0203 23.06 19.2652 24.0268 19.2516 24.8882C19.2504 24.9627 19.2504 25.0373 19.2516 25.1118C19.2652 25.9732 19.0203 26.9399 18.3362 27.7113L17.5212 28.6304C17.3784 28.7915 17.3547 29.0258 17.4623 29.2122L18.0833 30.2878C18.1909 30.4741 18.4057 30.5707 18.6165 30.5276L19.8182 30.2817C20.8318 30.0743 21.7932 30.3489 22.5318 30.7923C22.5946 30.83 22.6581 30.8667 22.7221 30.9024C23.4733 31.3206 24.1904 32.0151 24.5172 32.9955L24.9047 34.1581C24.9728 34.3623 25.1638 34.5 25.3791 34.5H26.621C26.8362 34.5 27.0273 34.3623 27.0954 34.1581L27.4829 32.9955C27.8097 32.0151 28.5268 31.3206 29.2779 30.9024C29.342 30.8667 29.4054 30.83 29.4682 30.7923C30.2069 30.3489 31.1682 30.0743 32.1819 30.2817L33.3835 30.5276C33.5944 30.5707 33.8092 30.4741 33.9168 30.2878L34.5377 29.2122C34.6453 29.0258 34.6216 28.7915 34.4788 28.6304L33.6639 27.7114C32.9798 26.94 32.7348 25.9732 32.7485 25.1118C32.7497 25.0373 32.7497 24.9627 32.7485 24.8882C32.7348 24.0267 32.9798 23.06 33.6639 22.2885L34.4788 21.3695C34.6216 21.2085 34.6453 20.9741 34.5377 20.7878L33.9168 19.7122C33.8092 19.5258 33.5944 19.4292 33.3835 19.4723L32.1818 19.7183C31.1682 19.9257 30.2068 19.6511 29.4682 19.2076C29.4054 19.17 29.342 19.1333 29.2779 19.0976C28.5268 18.6794 27.8097 17.9849 27.4829 17.0045L27.0954 15.8419C27.0273 15.6377 26.8362 15.5 26.621 15.5H25.3791C25.1638 15.5 24.9728 15.6377 24.9047 15.8419ZM23.0941 16.5302C22.9119 17.0769 22.4959 17.5067 21.9924 17.7871C21.9141 17.8307 21.8366 17.8755 21.7598 17.9216C21.2651 18.2186 20.6843 18.3644 20.119 18.2487L18.9172 18.0028C18.0738 17.8302 17.2146 18.2167 16.7842 18.9622L16.1632 20.0378C15.7328 20.7833 15.8277 21.7206 16.3989 22.3647L17.2139 23.2838C17.5958 23.7145 17.7609 24.2889 17.7518 24.8644C17.7503 24.9548 17.7503 25.0452 17.7518 25.1355C17.7609 25.7111 17.5958 26.2854 17.2139 26.7161L16.3989 27.6352C15.8277 28.2793 15.7328 29.2167 16.1632 29.9622L16.7842 31.0378C17.2146 31.7833 18.0738 32.1697 18.9172 31.9971L20.1189 31.7512C20.6842 31.6356 21.2651 31.7814 21.7598 32.0784C21.8365 32.1244 21.9141 32.1693 21.9924 32.2129C22.4959 32.4933 22.9119 32.9231 23.0941 33.4698L23.4817 34.6325C23.7539 35.4491 24.5182 36 25.3791 36H26.621C27.4819 36 28.2462 35.4491 28.5184 34.6325L28.9059 33.4698C29.0882 32.9231 29.5042 32.4933 30.0077 32.2129C30.086 32.1693 30.1635 32.1244 30.2403 32.0784C30.735 31.7814 31.3158 31.6356 31.8811 31.7512L33.0828 31.9971C33.9262 32.1697 34.7854 31.7833 35.2158 31.0378L35.8368 29.9622C36.2672 29.2167 36.1723 28.2793 35.6011 27.6352L34.7862 26.7162C34.4042 26.2855 34.2392 25.7111 34.2483 25.1356C34.2497 25.0452 34.2497 24.9548 34.2483 24.8644C34.2392 24.2888 34.4042 23.7144 34.7862 23.2838L35.6011 22.3647C36.1723 21.7206 36.2672 20.7833 35.8368 20.0378L35.2158 18.9622C34.7854 18.2167 33.9262 17.8302 33.0828 18.0028L31.881 18.2487C31.3158 18.3644 30.7349 18.2186 30.2402 17.9216C30.1635 17.8755 30.086 17.8307 30.0077 17.7871C29.5042 17.5067 29.0882 17.0769 28.9059 16.5302L28.5184 15.3675C28.2462 14.5509 27.4819 14 26.621 14H25.3791C24.5182 14 23.7539 14.5509 23.4817 15.3675L23.0941 16.5302Z" fill="white"/>
</svg>
